<svg xmlns="http://www.w3.org/2000/svg" width="1093.333" height="666.667"><defs><linearGradient x1="0" y1="0" x2="1" y2="0" gradientUnits="userSpaceOnUse" gradientTransform="matrix(-20.6614 495.882 495.882 20.6614 4223.11 1114)" spreadMethod="pad" id="b"><stop offset="0" stop-color="#ffebe3"/><stop offset="1" stop-color="#eddad4"/></linearGradient><linearGradient x1="0" y1="0" x2="1" y2="0" gradientUnits="userSpaceOnUse" gradientTransform="matrix(617.583 0 0 -617.583 2088.4 2400.06)" spreadMethod="pad" id="d"><stop offset="0" stop-color="#40d5e6"/><stop offset="1" stop-color="#57f"/></linearGradient><linearGradient x1="0" y1="0" x2="1" y2="0" gradientUnits="userSpaceOnUse" gradientTransform="matrix(558.486 0 0 -558.486 2541.45 2055.45)" spreadMethod="pad" id="f"><stop offset="0" stop-color="#40d5e6"/><stop offset="1" stop-color="#57f"/></linearGradient><linearGradient x1="0" y1="0" x2="1" y2="0" gradientUnits="userSpaceOnUse" gradientTransform="matrix(419.189 0 0 -419.189 2589.18 1974.24)" spreadMethod="pad" id="h"><stop offset="0" stop-color="#40d5e6"/><stop offset="1" stop-color="#57f"/></linearGradient><linearGradient x1="0" y1="0" x2="1" y2="0" gradientUnits="userSpaceOnUse" gradientTransform="matrix(488.174 0 0 -488.174 2437.81 2311.55)" spreadMethod="pad" id="j"><stop offset="0" stop-color="#40d5e6"/><stop offset="1" stop-color="#57f"/></linearGradient><linearGradient x1="0" y1="0" x2="1" y2="0" gradientUnits="userSpaceOnUse" gradientTransform="matrix(450.479 0 0 -450.479 2325.79 1611.33)" spreadMethod="pad" id="l"><stop offset="0" stop-color="#ff9340"/><stop offset="1" stop-color="#ffce45"/></linearGradient><linearGradient x1="0" y1="0" x2="1" y2="0" gradientUnits="userSpaceOnUse" gradientTransform="matrix(450.479 0 0 -450.479 2325.79 1611.33)" spreadMethod="pad" id="n"><stop offset="0" stop-color="#c97332"/><stop offset="1" stop-color="#ffce45"/></linearGradient><clipPath clipPathUnits="userSpaceOnUse" id="a"><path d="M907.887 1536H7295.19s502.94 24.62 242.92-235.12c-260.01-259.75-1260.95-197.76-1881.38-569.669-620.43-371.91-520.69 175.629-1335.04 206.598-814.36 31.011-3300.5 82.701-3322.963 309.961-22.454 227.25-361.555 282.95-90.84 288.23z"/></clipPath><clipPath clipPathUnits="userSpaceOnUse" id="c"><path d="M2142.36 3216.14c53.25 25.46 106.25-144.06 106.25-144.06 90.52-119.6 217.01 39.5 204.64-139.29-21.65-312.85 360.1-98.38 183.98-425-176.11-326.64 155.51-184.69 46.07-448.06-109.46-263.36 32.4-577.49-132.27-448.4 0 0-145.01 317.97-294.55 416.35-149.53 98.38 89.59 215.12 42.81 348.75-67.96 194.08-231.7 186.45-113.64 395.03 118.06 208.56-224.32 358.11-43.29 444.68z"/></clipPath><clipPath clipPathUnits="userSpaceOnUse" id="e"><path d="M2974.73 2373.2c-13.1-7.15-24.06-18.63-36.76-31.92-31.72-33.22-71.22-74.56-171.23-75.05-49.8-.23-77.69-6.72-90.44-21.03-13.93-15.67-10.9-42.81-6.7-80.38 1.6-14.18 3.4-30.25 4.51-47.73 6.76-107.45-54.82-182.53-57.44-185.66-35.84-42.66-76.4-127.55-59.44-176.06 6.59-18.85 21.66-30.78 44.82-35.47 80.73-16.31 103.01 34.2 139.95 117.9 6.77 15.34 13.78 31.21 21.73 48.02 42.78 90.31 82.69 105.98 143.11 129.67 14.5 5.7 30.93 12.15 48.86 20.2 76.35 34.32 62.58 81.44 48 131.32-2.09 7.13-4.16 14.26-5.97 21.29-9.2 35.9 8.94 54.4 31.86 77.81 16.52 16.84 35.22 35.92 50 66.84 7.76 16.2 14.16 38.22.6 51.07-17.84 16.92-63.18 12.27-105.46-10.82zm-344.85-668.14c-9.21 0-19.21 1.05-30.18 3.28-27.51 5.55-45.55 20.07-53.61 43.14-19.25 55.02 25.34 144.42 61.52 187.52.6.72 61.17 74.75 54.71 177.35-1.08 17.19-2.86 33.12-4.44 47.15-4.55 40.61-7.85 69.95 9.6 89.54 15.37 17.27 45.04 24.75 99.2 25.01 95 .45 132.57 39.78 162.75 71.38 12.82 13.42 24.93 26.1 39.64 34.13 47.34 25.85 97.49 29.64 119.24 9.04 10.33-9.8 19.05-28.98 1.94-64.75-15.64-32.68-35.91-53.38-52.22-70-21.92-22.38-36.4-37.16-28.86-66.62 1.75-6.91 3.8-13.89 5.85-20.9 14.65-50.1 31.24-106.87-54.49-145.41-18.19-8.16-34.75-14.68-49.38-20.42-59.85-23.47-95.97-37.66-136.75-123.74-7.89-16.66-14.86-32.44-21.6-47.72-32.15-72.86-56.48-127.97-122.92-127.98z"/></clipPath><clipPath clipPathUnits="userSpaceOnUse" id="g"><path d="M2600.97 1636.91l-11.79.61c.59 11.07 15.46 272.17 120.29 348.57 115 83.83 151.26 173.93 168.53 234.4 20.35 71.25 123.92 90.29 128.32 91.07l2.05-11.64c-.99-.17-100.7-18.55-119.02-82.68-17.74-62.14-54.98-154.7-172.93-240.7-100.33-73.11-115.31-336.98-115.45-339.63z"/></clipPath><clipPath clipPathUnits="userSpaceOnUse" id="i"><path d="M2840.65 2952.66c-74.5 25.55-59.02-118.05-90.51-224.3-31.47-106.26-350.24-46.36-216.43-312.42 133.79-266.07-169.22-88.99-78.71-321.17 90.51-232.17 7.87-480.49 106.25-417.34 98.37 63.17 55.28 355.55 157.58 390.28 102.32 34.75 119.02 75.26 17.72 169.71-101.31 94.45 265.45 188.22 174.93 378.93-90.5 190.7 15.25 306.79-70.83 336.31z"/></clipPath><clipPath clipPathUnits="userSpaceOnUse" id="k"><path d="M2776.26 1813.12l-106.36-403.59h-237.74l-106.37 403.59z"/></clipPath><clipPath clipPathUnits="userSpaceOnUse" id="m"><path d="M2776.26 1813.12s-234.18-43.98-234.18-403.59h-109.92l-106.37 403.59z"/></clipPath></defs><path d="M1093.332 666.667H0V0h1093.332v666.667" fill="#f7f7f7"/><g clip-path="url(#a)" transform="matrix(.13333 0 0 -.13333 0 666.667)"><path d="M907.887 1536H7295.19s502.94 24.62 242.92-235.12c-260.01-259.75-1260.95-197.76-1881.38-569.669-620.43-371.91-520.69 175.629-1335.04 206.598-814.36 31.011-3300.5 82.701-3322.963 309.961-22.454 227.25-361.555 282.95-90.84 288.23" fill="url(#b)"/></g><g clip-path="url(#c)" transform="matrix(.13333 0 0 -.13333 0 666.667)"><path d="M2142.36 3216.14c53.25 25.46 106.25-144.06 106.25-144.06 90.52-119.6 217.01 39.5 204.64-139.29-21.65-312.85 360.1-98.38 183.98-425-176.11-326.64 155.51-184.69 46.07-448.06-109.46-263.36 32.4-577.49-132.27-448.4 0 0-145.01 317.97-294.55 416.35-149.53 98.38 89.59 215.12 42.81 348.75-67.96 194.08-231.7 186.45-113.64 395.03 118.06 208.56-224.32 358.11-43.29 444.68" fill="url(#d)"/></g><path d="M347.09 435.867c-9.518-6.692-20.655-53.339-21.32-81.122-.342-14.232-4.547-20.161-8.26-25.393-3.547-5-6.613-9.319-4.829-19.233 3.414-18.952-5.556-27.132-5.646-27.21l1.037-1.185c.4.35 9.739 8.787 6.16 28.673-1.67 9.264 1.081 13.139 4.561 18.044 3.651 5.147 8.199 11.554 8.548 26.264.715 29.819 12.103 73.86 20.655 79.876l-.905 1.286" fill="#fff"/><g clip-path="url(#e)" transform="matrix(.13333 0 0 -.13333 0 666.667)"><path d="M2974.73 2373.2c-13.1-7.15-24.06-18.63-36.76-31.92-31.72-33.22-71.22-74.56-171.23-75.05-49.8-.23-77.69-6.72-90.44-21.03-13.93-15.67-10.9-42.81-6.7-80.38 1.6-14.18 3.4-30.25 4.51-47.73 6.76-107.45-54.82-182.53-57.44-185.66-35.84-42.66-76.4-127.55-59.44-176.06 6.59-18.85 21.66-30.78 44.82-35.47 80.73-16.31 103.01 34.2 139.95 117.9 6.77 15.34 13.78 31.21 21.73 48.02 42.78 90.31 82.69 105.98 143.11 129.67 14.5 5.7 30.93 12.15 48.86 20.2 76.35 34.32 62.58 81.44 48 131.32-2.09 7.13-4.16 14.26-5.97 21.29-9.2 35.9 8.94 54.4 31.86 77.81 16.52 16.84 35.22 35.92 50 66.84 7.76 16.2 14.16 38.22.6 51.07-17.84 16.92-63.18 12.27-105.46-10.82zm-344.85-668.14c-9.21 0-19.21 1.05-30.18 3.28-27.51 5.55-45.55 20.07-53.61 43.14-19.25 55.02 25.34 144.42 61.52 187.52.6.72 61.17 74.75 54.71 177.35-1.08 17.19-2.86 33.12-4.44 47.15-4.55 40.61-7.85 69.95 9.6 89.54 15.37 17.27 45.04 24.75 99.2 25.01 95 .45 132.57 39.78 162.75 71.38 12.82 13.42 24.93 26.1 39.64 34.13 47.34 25.85 97.49 29.64 119.24 9.04 10.33-9.8 19.05-28.98 1.94-64.75-15.64-32.68-35.91-53.38-52.22-70-21.92-22.38-36.4-37.16-28.86-66.62 1.75-6.91 3.8-13.89 5.85-20.9 14.65-50.1 31.24-106.87-54.49-145.41-18.19-8.16-34.75-14.68-49.38-20.42-59.85-23.47-95.97-37.66-136.75-123.74-7.89-16.66-14.86-32.44-21.6-47.72-32.15-72.86-56.48-127.97-122.92-127.98" fill="url(#f)"/></g><g clip-path="url(#g)" transform="matrix(.13333 0 0 -.13333 0 666.667)"><path d="M2600.97 1636.91l-11.79.61c.59 11.07 15.46 272.17 120.29 348.57 115 83.83 151.26 173.93 168.53 234.4 20.35 71.25 123.92 90.29 128.32 91.07l2.05-11.64c-.99-.17-100.7-18.55-119.02-82.68-17.74-62.14-54.98-154.7-172.93-240.7-100.33-73.11-115.31-336.98-115.45-339.63" fill="url(#h)"/></g><g clip-path="url(#i)" transform="matrix(.13333 0 0 -.13333 0 666.667)"><path d="M2840.65 2952.66c-74.5 25.55-59.02-118.05-90.51-224.3-31.47-106.26-350.24-46.36-216.43-312.42 133.79-266.07-169.22-88.99-78.71-321.17 90.51-232.17 7.87-480.49 106.25-417.34 98.37 63.17 55.28 355.55 157.58 390.28 102.32 34.75 119.02 75.26 17.72 169.71-101.31 94.45 265.45 188.22 174.93 378.93-90.5 190.7 15.25 306.79-70.83 336.31" fill="url(#j)"/></g><path d="M347.587 441.527c-1.251-5.302-11.92-51.942-1.966-57.578 8.776-4.969 8.56-24.296 7.191-42.544-1.21-16.154 19.536-23.705 20.42-24.02l.527 1.484c-.204.074-20.499 7.464-19.376 22.419 1.405 18.74 1.556 38.63-7.984 44.03-7.562 4.282-.6 41.765 2.72 55.846l-1.532.363" fill="#fff"/><g clip-path="url(#k)" transform="matrix(.13333 0 0 -.13333 0 666.667)"><path d="M2776.26 1813.12l-106.36-403.59h-237.74l-106.37 403.59h450.47" fill="url(#l)"/></g><g clip-path="url(#m)" transform="matrix(.13333 0 0 -.13333 0 666.667)"><path d="M2776.26 1813.12s-234.18-43.98-234.18-403.59h-109.92l-106.37 403.59h450.47" fill="url(#n)"/></g><path d="M554.793 257.85l-67.282.309.225 48.765.047 10.272 10.225-10.32 57.01-.261-.225-48.766" fill="#ffca55"/><path d="M526.41 284.32a5.137 5.137 0 01-5.123 5.153 5.136 5.136 0 01-5.155-5.12 5.14 5.14 0 0110.277-.033M543.285 284.265a5.139 5.139 0 11-10.277.035 5.139 5.139 0 0110.277-.035M509.92 284.372a5.139 5.139 0 11-10.277.032 5.139 5.139 0 0110.277-.032" fill="#fff"/><path d="M534.824 124.53l67.28.311-.224 48.766-.048 10.272-10.224-10.319-57.008-.263.224-48.766" fill="#78c2ff"/><path d="M563.208 151.003a5.139 5.139 0 105.155-5.123 5.137 5.137 0 00-5.155 5.123M546.332 150.95a5.139 5.139 0 1010.275.03 5.139 5.139 0 00-10.275-.03M579.696 151.055a5.138 5.138 0 005.123 5.153 5.138 5.138 0 10.033-10.276 5.142 5.142 0 00-5.156 5.123" fill="#fff"/><path d="M852.29 111.159l-95.66.44.317 69.338.068 14.604 14.536-14.672 81.057-.374-.317-69.336" fill="#ffca55"/><path d="M811.93 148.797a7.306 7.306 0 11-14.609.043 7.306 7.306 0 0114.61-.043M835.93 148.721a7.308 7.308 0 01-7.285 7.33 7.306 7.306 0 01-7.329-7.283 7.306 7.306 0 017.281-7.33 7.308 7.308 0 017.332 7.283M788.49 148.87a7.308 7.308 0 01-14.615.047 7.308 7.308 0 0114.614-.046" fill="#fff"/><path d="M1006.843 162.339l-84.171.388.281 61.008.058 12.849 12.793-12.91 71.32-.327-.281-61.008" fill="#78c2ff"/><path d="M971.335 195.456a6.43 6.43 0 01-12.86.04 6.43 6.43 0 0112.86-.04M992.447 195.388a6.43 6.43 0 01-6.41 6.45 6.428 6.428 0 11-.04-12.857 6.429 6.429 0 016.45 6.407M950.704 195.521a6.427 6.427 0 11-12.856.04 6.43 6.43 0 016.41-6.449 6.426 6.426 0 016.446 6.41" fill="#fff"/><path d="M78.639 162.107l101.014.466-.336 73.216-.072 15.422-15.35-15.494-85.592-.393.336-73.217" fill="#78c2ff"/><path d="M121.253 201.852a7.716 7.716 0 007.692 7.739 7.714 7.714 0 007.738-7.69 7.715 7.715 0 10-15.43-.05M95.917 201.77a7.715 7.715 0 107.739-7.689 7.713 7.713 0 00-7.739 7.69M146.01 201.93a7.72 7.72 0 007.691 7.74 7.718 7.718 0 007.74-7.691 7.716 7.716 0 00-15.432-.05" fill="#fff"/><path d="M428.065 265.49a6.687 6.687 0 014.63-12.545 6.686 6.686 0 01-4.63 12.546zm12.383-2.558c2.052-5.56-.795-11.732-6.355-13.781-5.56-2.052-11.73.793-13.781 6.354 0 0-.223.43-.436 1.514-.073.353-.13.71-.168 1.065-.424 3.288-.465 10.187 2.512 23.257 10.75-8.005 15.196-13.276 17.01-16.052.205-.297.391-.604.566-.925.541-.96.652-1.432.652-1.432M900.81 113.781l-12.127-5.269a1.963 1.963 0 111.565-3.6l8.575 3.727 6.192-13.724a1.963 1.963 0 113.581 1.613l-7.787 17.253" fill="#ffca55"/><path d="M888.13 87.69c-9.583 6.737-11.9 20.014-5.166 29.6 6.732 9.585 20.01 11.903 29.599 5.169 9.584-6.736 11.902-20.014 5.168-29.599-6.738-9.587-20.015-11.904-29.6-5.17zm26.467 37.665c-11.182 7.858-26.674 5.153-34.532-6.03-7.857-11.182-5.152-26.674 6.031-34.53 11.183-7.86 26.673-5.155 34.53 6.029 7.86 11.183 5.154 26.673-6.029 34.53" fill="#ffca55"/><path d="M399.955 225.877l-32.266-6.588 4.511-22.092 32.264 6.59-4.51 22.09" fill="#ffc655"/><path d="M367.69 219.29l18.653-9.055 13.612 15.642z" fill="#ffbc55"/><path d="M404.464 203.787l-18.941 10.468-13.323-17.058z" fill="#ffa655"/><path d="M850.319 212.999c-8.454-.087-11.36 7.524-11.36 7.524s-7.035-4.114-13.568 1.245c-6.532 5.361-3.178 10.61-3.178 10.61 4.611 11.247 26.878 16.94 26.878 16.94s13.797-18.383 10.349-30.04c0 0-.672-6.194-9.121-6.28" fill="#ffca55"/><path d="M262.213 171.063c-7.21 2.329-11.177 10.09-8.848 17.298a13.72 13.72 0 009.379 9.006l.17.048.118.129c1.673 1.83 3.983 4.656 5.49 7.713l.02.043c.465 1.165 1.449 2.048 2.767 2.488 1.355.452 2.891.381 4.328-.196 2.934-1.176 4.524-4.12 3.544-6.564l-.009-.02-.005-.023c-.79-2.498-1.246-5.509-1.354-8.942l-.008-.194.107-.161a13.678 13.678 0 001.599-11.779c-2.331-7.209-10.09-11.177-17.298-8.846zm13.347 37.858c-1.55.5-3.179.514-4.639.027-1.656-.55-2.901-1.677-3.508-3.17-1.409-2.851-3.564-5.511-5.169-7.28a14.943 14.943 0 01-10.043-9.76c-2.537-7.85 1.784-16.303 9.634-18.84 7.852-2.538 16.304 1.782 18.84 9.633a14.898 14.898 0 01-1.632 12.664c.116 3.232.548 6.057 1.284 8.401 1.213 3.064-.68 6.71-4.232 8.132a7.566 7.566 0 01-.535.193" fill="#ffd255"/><path d="M271.06 205.25l-7.99-14.351 4.213 1.314 1.065-2.962 2.519 1.34 1.92-3.694 4.397 15.848-1.18.328-3.564-12.852-1.057 2.032-2.362-1.256-.982 2.738-2.408-.754 6.5 11.672-1.071.596M282.047 209.339l-9.85 3.953-1.593-3.97 9.85-3.953 1.593 3.97" fill="#ffd255"/><path d="M282.975 207.07l-13.019 5.225-2.564-6.39 13.017-5.225 2.566 6.39" fill="#ffd255"/><path d="M1000.885 347.773c-.033 84.451-2.4 100.982-23.605 119.903-8.305 7.41-23.579 22.803-67.648 30.467-13.23 2.302-29.05 3.906-48.055 4.39-7.754.198-14.87-.084-21.381-.793-5.459-.59-10.492-1.484-15.113-2.641-48.436-12.136-52.054-53.635-30.87-88.544 5.611-9.246 12.023-17.744 18.743-25.667 10.375-12.237 21.497-23.107 31.57-33.252 9.282-9.35 17.677-18.085 23.778-26.71 2.572-3.633 4.737-7.246 6.39-10.88.393-.858.79-1.71 1.187-2.551a184.114 184.114 0 013.999-7.907 188.278 188.278 0 017.635-12.948c1.992-3.096 3.926-5.9 5.726-8.39 6.184-8.549 10.779-13.347 10.779-13.347s.572-.27 1.632-.708c.561-.236 1.265-.52 2.096-.836a104.439 104.439 0 012.216-.819c.372-.13.76-.267 1.157-.401.47-.163.96-.324 1.467-.491.299-.096.604-.195.915-.29.184-.06.37-.118.557-.175l.215-.066c6.288-1.926 14.912-3.936 24.3-4.27 27.833-.994 62.344 12.732 62.31 86.926" fill="#eb4747"/><path d="M888.213 474.912s.695 5.66 1.612 8.156c.923 2.497 5.916 8.26 3.806 13.797-2.288 6.004-12.272.219-16.348-1.614-4.074-1.832-3.144-5.155-3.579-9.227-.435-4.07-2.423-4.18-1.688-7.044.732-2.861 5.187-8.341 5.187-8.341l11.01 4.273" fill="#b7ceff"/><path d="M879.127 467.676s-2.558 3.576-2.486 3.676c.071.096 10.95 6.721 11.707 4.572.601-1.707.855-4.179.855-4.179l-10.076-4.069" fill="#eea886"/><path d="M842.248 478.915s-3.319 2.906-6.3 7.378c-2.98 4.47-10.893 4.707-11.23 10.811-.34 6.101 10.755 6.29 16.58 4.303 5.827-1.987 6.706-7.946 10.229-9.438 3.522-1.49 5.353-2.696 5.081-5.605-.27-2.91-2.22-7.632-2.22-7.632s-2.19.697-3.475.841c-1.288.14-5.617.192-8.665-.658" fill="#b7ceff"/><path d="M882.177 313.573s-2.232 13.278-4.032 22.047c-.73 3.556-1.388 6.372-1.797 7.257-.516 1.116-4.707 5.615-9.833 10.898-9 9.262-20.89 20.929-20.89 20.929l-4.65-8.824s10.561-12.38 17.721-20.641c3.315-3.822 5.9-6.763 6.373-7.187 1.496-1.339 3.235-14.533 5.678-25.404 2.44-10.872 7.334-16.88 7.334-16.88l4.096 17.805" fill="#e8e8e8"/><path d="M866.515 353.775c-9 9.262-20.89 20.929-20.89 20.929l-4.65-8.824s10.561-12.38 17.721-20.641c2.196 1.076 6.223 3.644 7.819 8.536M842.77 474.847l-.522 4.068s5.777 2.038 12.14-.183l.13-3.615-11.749-.27" fill="#eea886"/><path d="M924.765 372.91c.334 1.18-61.18 0-61.18 0s17.016-12.386 18.119-15.694c1.104-3.308-4.333-23.161-5.041-29.62-.567-5.17-1.988-28.295 1.418-31.828 3.56-3.692 16.384-7.563 16.384-7.563l18.699.696s3.085.643 5.29 1.668c2.206 1.024 14.82 5.516 16.869 11.819 2.048 6.304-12.587 26.565-12.587 26.565l-.072 2.404c-.056 1.99-.14 5.014-.217 8.295-.098 4.25-.183 8.927-.183 12.343 0 8.036 2.172 19.734 2.501 20.914" fill="#e8e8e8"/><path d="M924.768 372.912s8.368 12.288 8.484 20.676c.117 8.39-14.848 36.49-17.112 40.51-6.81 12.085-25.481 38.151-25.481 38.151s-3.219-.082-13.262-3.982c0 0 12.422-34.431 13.995-38.006 6.677-15.16 10.405-25.912 8.161-28.512-2.245-2.601-8.366-5.208-10.138-6.744-1.774-1.534-32.651 5.836-35.887 6.675-8.377 2.172-4.557 16.75-2.705 23.287 3.101 10.932 5.813 50.416 5.813 50.416s-5.968 2.544-15.965.396c0 0-19.627-71.296-20.255-78.386-.63-7.089-.941-18.781 47.425-27.668l56.927 3.187" fill="#303669"/><path d="M899.596 247.584s-16.23-3.661-12.521 16.764c3.706 20.425 7.612 22.03 17.4 17.803 9.794-4.227 8.917-17.312 9.408-23.73.492-6.417-9.108-10.614-14.287-10.837" fill="#eea886"/><path d="M895.303 293.45s7.188 7.62 18.546.693c0 0-2.541-16.515-1.202-24.558 1.337-8.044-14.822 12.463-14.822 12.463.211.112.352.88.384 1.973a21.48 21.48 0 01-.168 3.272c-.333 2.674-1.165 5.499-2.738 6.156" fill="#eea886"/><path d="M913.092 268.903s-.417-6.436-2.768-6.638c-2.35-.2-2.71 2.391-2.71 2.391l-2.374.448s.75-5.64-1.599-6.625c-2.348-.986-15.206 3.105-17.089 1.448-1.887-1.654-.999-13.096 2.41-14.662 3.403-1.566 12.817-5.073 19.709-.406 0 0 5.376-.614 6.172 3.724.797 4.336-.29 17.094-1.751 20.32" fill="#3a3f47"/><path d="M898.041 287.293c11.719-3.613 12.602-10.67 12.615-10.78-3.859 6.63-12.447 7.508-12.447 7.508a21.48 21.48 0 01-.168 3.272" fill="#a77860"/><path d="M918.647 290.659s-8.583 17.084-22.448 15.981c-13.864-1.104-2.363-18.276-1.734-18.435.694-.174 14.222-3.544 24.182 2.454" fill="#eea886"/><path d="M856.548 372.044s42.481 5.237 68.22.868l-49.177-6.147s-.292 1.255-19.043 5.279" fill="#e8e8e8"/><path d="M888.323 364.83l-3.164 1.605s.721 5.026 2.453 6.549l3.552-.905s-.741-5.514-2.841-7.248" fill="#eea886"/><path d="M937.48 354.536c-.632.733-8.984 4.093-18.42 7.727l-.001.001c-12.888 4.965-27.427 9.663-27.427 9.663l-3.31-7.096s15.225-8.274 25.514-14.076c4.86-2.739 8.617-4.93 9.15-5.435 1.654-1.575 2.083-4.101.867-8.508-1.217-4.405-4.021-24.659-4.334-27.021-.316-2.363.786-8.666 6.694-8.982 5.911-.314 8.918 1.355 8.918 1.355s1.482.616 2.585 14.953c1.103 14.339 1.259 35.688-.236 37.419" fill="#e8e8e8"/><path d="M922.664 331.357c-.056 1.99-.14 5.014-.217 8.295-5.766-14.133-2.434-25.415-2.378-25.605-.622 3.836 2.551 17.122 2.595 17.31M878.145 335.62c-.73 3.556-1.388 6.372-1.797 7.257-1.97-9.53-.197-21.734-.197-21.734.268 5.829 1.994 14.477 1.994 14.477" fill="#b0b0b0"/><path d="M919.06 362.263l-.001.001c-12.888 4.965-27.895 9.815-27.895 9.815l-2.841-7.248s15.224-8.274 25.513-14.076c0 0 3.744 1.825 5.224 11.508" fill="#eea886"/><path d="M887.407 372.5l-60.382-.89 30.484 15.478z" fill="#444c94"/><path d="M857.51 387.088l29.897-11.579V372.5l-32.26 11.636 2.362 2.952" fill="#303669"/><path d="M885.841 366.544s-3.772-.587-6.377-1.193c-2.019-.471-7.035.177-8.312 1.47-1.277 1.296-5.343 10.318-6.11 10.867-.769.552.394 1.825 1.743 1.184 0 0 1.24 3.948 4.298 2.47 3.057-1.478 5.133-4.703 6.736-5.271 1.6-.568 10.929-3.435 10.929-3.435s-.504-7.052-2.907-6.092" fill="#eea886"/><path d="M872.073 366.23s-2.425 1.171-3.054 1.691c-.634.523-3.2 2.442-3.82 2.894-.619.45.938 1.734 5.521-.25 4.584-1.984 1.353-4.334 1.353-4.334" fill="#eea886"/><path d="M857.51 387.088l-17.958-49.036-57.9.945 17.115 45.191 58.742 2.9" fill="#303669"/><path d="M821.025 359.747c1.766 3.532 1.231 7.378-1.193 8.592-2.424 1.213-5.823-.668-7.59-4.2-1.767-3.532-1.233-7.379 1.191-8.592 2.426-1.214 5.823.666 7.592 4.2" fill="#518afa"/><path d="M907.663 261.93c.212-1.802 3.773-2.463 4.061.238.287 2.701-1.617 7.444-2.972 6.977-1.35-.465-1.384-4.73-1.09-7.216" fill="#eea886"/><path d="M550.581 457.297c-.41 2.871-17.658 14.951-21.054 17.364-2.727 1.938-5.096 2.826-9.218 4.374h-.002c-9.366 2.462-68.124 19.996-68.124 19.996-.155-.596-.239-1.114-.583-1.786-2.195.875-4.452 1.443-5.885 1.891-2.187.681-19.551 1.228-23.107 1.913-3.555.683-10.664 1.776-13.536-.958-2.87-2.734 1.779-8.612 5.744-10.118 3.963-1.502 18.457-1.913 21.055-2.186 2.597-.274 6.016-1.231 7.657-.686.517.174 2.808-.498 5.7-1.498-.07-1.066-.087-1.736-.087-1.736l15.427-4.448-2.856-27.318s6.712-25.294 33.53-5.997c0 0 5.982 1.759 8.034 2.305.144.039.375.044.685.02 4.092-.308 21.672-5.624 28.026-5.624 6.837 0 9.024-.412 11.485.82 2.461 1.23 7.52 10.799 7.11 13.672" fill="#faa146"/><path d="M523.11 500.09c-2.874 2.735-9.983 1.642-13.537.96-3.554-.686-20.918-1.233-23.106-1.914-2.19-.685-6.29-1.641-9.16-3.557-.232-.155-.76-.384-1.535-.672l-.003.002-4.342 3.131-60.372-19.217c-3.618-.992-6.49-2.5-8.399-4.162-3.147-2.734-20.647-14.493-21.056-17.364-.41-2.873 4.647-12.442 7.108-13.672 2.461-1.232 4.65-.82 11.485-.82 6.836 0 26.662 6.152 28.712 5.604.932-.249 2.864-1.232 4.694-2.229 2.192-1.2 4.238-2.419 4.238-2.419 29.364-13.108 32.634 8.34 32.634 8.34l-1.74 26.48s2.448 1.214 5.632 2.726l14.553 4.112-1.905 1.376c.822.265 1.406.388 1.644.306 1.64-.545 5.058.412 7.656.686 2.597.273 17.089.684 21.056 2.186 3.965 1.506 8.613 7.384 5.742 10.118" fill="#faa146"/><path d="M433.599 446.18c2.024.14 15.706 8.065 18.953 9.959-4.935-2.576-23.647-7.73-23.647-7.73.932-.249 2.864-1.232 4.694-2.229M503.963 448.43s-23.572 5.718-27.884 8.114c.196-.143 12.421-9.433 18.84-10.672 0 0 6.305 1.99 8.357 2.537.144.039.375.044.685.02h.002" fill="#5478b3"/><path d="M523.11 500.09c-2.874 2.735-9.983 1.642-13.537.96-3.554-.686-20.918-1.233-23.106-1.914-.631-.199-1.415-.417-2.287-.675h-.001c-2.158-.638-4.828-1.518-6.872-2.882-.232-.155-.76-.384-1.535-.672l10.925-7.886.314-.226c.822.265 1.406.388 1.644.306 1.64-.545 5.058.412 7.656.686 2.597.273 17.089.684 21.056 2.186 3.965 1.506 8.613 7.384 5.742 10.118" fill="#eea886"/><path d="M523.11 500.09c-2.874 2.735-9.983 1.642-13.537.96-3.554-.686-20.918-1.233-23.106-1.914-.631-.199-1.415-.417-2.287-.675h-.001l-.003-.002s4.78-4.728 2.521-11.438l.314-.226c.822.265 1.406.388 1.644.306 1.64-.545 5.058.412 7.656.686 2.597.273 17.089.684 21.056 2.186 3.965 1.506 8.613 7.384 5.742 10.118" fill="#fff"/><path d="M439.592 452.213c.03.074.024.128-.023.162-.272.205-.228.117.023-.162" fill="#e55353"/><path d="M498.44 431.25c-1.341 1.523-6.644 4.893-11.413 7.667-.362-3.305-.912-8.508-.971-10.378-.09-2.826 1.093-10.938 2.552-14.036 1.459-3.099 2.461-11.578 2.461-11.578s12.076 16.408 13.991 18.14c1.915 1.732-2.09 5.042-6.62 10.186zm-70.525 1.958c-3.419-4.101-8.124-6.583-6.94-8.405 1.186-1.824 11.212-19.143 11.212-19.143s5.196 11.393 6.654 17.319c1.459 5.925 1.344 8.638.728 10.482-.552 1.652-.994 2.776-1.49 7.699-4.087-2.793-8.599-6.072-10.164-7.952zm90.696-12.963c-.228-.461-12.683-20.053-16.056-28.986-3.375-8.934-11.486-13.035-15.314-14.31a845.017 845.017 0 00-6.366-2.08c-4.624-1.494-9.675-3.117-9.675-3.117h-15.952s-5.527 1.852-11.396 3.91l-.005.002c-5.407 1.899-11.103 3.97-13.027 4.932-4.01 2.003-10.756 16.315-12.123 17.955-1.366 1.641-11.881 21.129-13.398 28.621-1.179 5.817 33.35 22.859 34.293 25.041 1.093-1.213 6.123-6.033 6.123-6.033s-1.611-1.013-3.88-2.505c9.25.424 31.852-.375 35.096-.211a16.599 16.599 0 002.084-.044c1.002.73 7.476 6.447 7.476 6.447s15.952-6.622 23.286-14.035c10.419-10.527 9.982-13.261 8.834-15.587" fill="#5779d4"/><path d="M465.124 327.912s12.476 1.963 10.576 21.481c-1.9 19.519-12.91 17.918-13.645 17.899-.736-.021-11.054.356-11.856-23.475 0 0-.354-17.621 14.925-15.905" fill="#eea886"/><path d="M475.892 343.88s1.367-1.459 1.868.019c.501 1.476-1.864 8.065-1.95 8.373 0 0-.249.573-.577.257-.328-.316.659-8.649.659-8.649M450.533 343.635s-1.337-1.487-1.866-.019c-.53 1.468 1.686 8.097 1.785 8.41 0 0 .24.575.573.269.334-.311-.492-8.66-.492-8.66" fill="#eea886"/><path d="M475.887 346.875l-1.786 2.385s.05-5.232-.236-6.053c-.288-.82-.726-3.328-.965-3.919-.239-.592-10.712-3.528-19.961.856 0 0 .405 3.765-.483 4.099-.885.336-.45 6.129-.45 6.129l-1.469-1.656s-2.248-15.016-1.693-16.58c.556-1.565 2.324-10.975 21.303-5.388 0 0 5.916-1.255 7.104 2.83 1.188 4.086-1.364 17.297-1.364 17.297" fill="#434343"/><path d="M446.77 471.68s-19.095-11.444-27.437-13.243c-7.881-1.702-10.754-4.65-10.754-4.65s12.533 0 20.873 5.925c5.663 4.023 17.319 11.968 17.319 11.968M463.735 479.659s33.213-17.44 46.774-21.222c7.767-2.168 10.756-4.65 10.756-4.65s-20.534 2.006-33.021 9.525c-5.952 3.584-24.51 16.347-24.51 16.347" fill="#b57433"/><path d="M451.6 497.245c-2.195.875-4.452 1.443-5.885 1.891-2.187.681-19.551 1.228-23.107 1.913-3.555.683-10.664 1.776-13.536-.958-2.87-2.734 1.779-8.612 5.744-10.118 3.963-1.502 18.457-1.913 21.055-2.186 2.597-.274 6.016-1.231 7.657-.686.517.174 2.808-.498 5.7-1.498.09 1.736 2.372 11.642 2.372 11.642" fill="#eea886"/><path d="M463.735 495.59l32.652-9.66-6.456-1.971s-26.095 9.458-26.196 11.632" fill="#faa146"/><path d="M463.735 495.59l15.28-4.66-10.594 6.154z" fill="#b57433"/><path d="M453.239 456.544l-.687-.405c.275.144.504.278.687.405" fill="#525252"/><path d="M445.715 499.136c-2.187.681-19.551 1.228-23.107 1.913-3.555.683-10.664 1.776-13.536-.958-2.87-2.734 1.779-8.612 5.744-10.118 3.963-1.502 18.457-1.913 21.055-2.186 2.597-.274 6.016-1.231 7.657-.686 0 0-4.384 6.702 2.187 12.035" fill="#fff"/><path d="M434.921 453.787l-5.032-28.62 65.055-1.503-4.19 28.164s-20.765 7.599-27.813 12.033c0 0-17.812-7.317-28.02-10.074" fill="#525252"/><path d="M466.772 442.427c0 2.365-1.633 4.284-3.648 4.284-2.012 0-3.644-1.919-3.644-4.284 0-2.366 1.632-4.284 3.644-4.284 2.015 0 3.648 1.918 3.648 4.284" fill="#6e6e6e"/><path d="M471.363 371.805l-.018-.052c-.778-1.737-.397-10.21-.397-10.21s-15.89-4.044-15.435-.952c.454 3.092-1.369 11.534-1.369 11.534l-8.15 2.79s8.683 23.317 18.666 20.309c9.98-3.008 13.748-21.15 13.748-21.15l-7.045-2.269" fill="#eea886"/><path d="M455.81 364.1s2.491 3.23 6.934 3.23c2.923 0 4.917-.72 7.828-3.557 0 0-1.157 5.292-7.808 5.792 0 0-4.755.687-6.953-5.465" fill="#a77860"/><path d="M729.397 188.145s9.234-.965 12.562 7.951c3.325 8.917 6.458 11.836 6.849 16.521 1.585 18.946 10.435 14.66 7.944 25.58-2.488 10.923-4.21 12.576-4.21 12.576l-21.151-4.148-21.431.07s8.384-4.187 6.519-13.104c-1.867-8.918-6.519-23.531-3.892-33.487 2.626-9.953 11.292-11.196 16.81-11.959" fill="#464240"/><path d="M723.555 480.9s-6.632 9.108-5.691 10.576c.944 1.468 8.183 1.677 12.584 0 4.405-1.677 4.51-12.533 6.503-17.196.834-1.953-.952-7.716-3.46-8.135-2.511-.417-5.455.899-5.455.899s2.57 6.636-4.481 13.856" fill="#eb4747"/><path d="M728.036 467.044s-.523 4.3-1.361 7.341c-.839 3.04-5.347 9.96-5.139 10.8.21.839 5.873 1.598 8.179-.564s4.089-8.425 4.3-12.214c.21-3.79-.524-6.262-.524-6.262s-3.251-1.408-5.455.899" fill="#eea886"/><path d="M736.95 474.28v9.696h-1.258v-7.495l1.259-2.201M740.91 480.9s-6.631 9.108-5.69 10.576c.944 1.468 8.181 1.677 12.584 0 4.404-1.677 4.508-12.533 6.501-17.196.834-1.953-.952-7.716-3.461-8.135-2.508-.417-5.452.899-5.452.899s2.568 6.636-4.483 13.856" fill="#eb4747"/><path d="M745.392 467.044s-.524 4.3-1.363 7.341c-.837 3.04-5.348 9.96-5.138 10.8.21.839 5.873 1.598 8.178-.564 2.306-2.162 4.09-8.425 4.3-12.214.211-3.79-.525-6.262-.525-6.262s-3.252-1.408-5.452.899" fill="#eea886"/><path d="M754.305 474.28v9.696h-1.258v-7.495l1.258-2.201" fill="#eb4747"/><path d="M711.364 316.081s-5.016 27.64-6.372 34.555c-1.355 6.916-5.15 40.403-5.557 46.099-.408 5.694 12.369 33.084 13.168 34.973 13.369 31.628 14.912 38.784 14.912 38.784s4.389 2.75 6.417-.53c.616-1-8.23-37.267-9.685-47.329-1.356-9.357-4.884-23.806-3.934-27.092.95-3.284 9.628-48.538 11.256-50.437 1.627-1.899 4.068 1.085 5.016 5.29.95 4.2 2.983 40.538 4.202 45.147 1.221 4.61.273 20.204.95 28.067.679 7.864 3.503 44.572 3.503 44.572s5.46.976 6.003.103c.542-.874 5.272-40.77 5.408-50.124.136-9.356.28-22.258.542-26.304 2.511-38.77 7.258-43.839-1.037-71.743-20.295-68.273-44.792-4.03-44.792-4.03" fill="#eea886"/><path d="M711.364 316.081s-5.016 27.64-6.372 34.555c-1.355 6.916-5.15 40.403-5.557 46.099-.408 5.694 11.929 33.082 12.202 35.117.271 2.033 10.432 31.145 10.432 31.145s10.263-.176 13.062-2.836c.561-.533-9.428-27.466-10.884-37.528-1.356-9.357-4.884-23.806-3.934-27.092.95-3.284 9.628-48.538 11.256-50.437 1.627-1.899 4.068 1.085 5.016 5.29.95 4.2 2.983 40.538 4.202 45.147 1.221 4.61.273 20.204.95 28.067.679 7.864-.752 35.807-.752 35.807s13.446.704 13.987-.17c.543-.873 1.543-31.732 1.679-41.086.136-9.356.28-22.258.542-26.304 2.511-38.77 7.258-43.839-1.037-71.743-20.295-68.273-44.792-4.03-44.792-4.03" fill="#faa146"/><path d="M758.17 325.383c.783-.316-5.494-21.074-6.74-27.278-1.122-5.594-4.946-10.72-1.21-20.252 2.139-5.458 1.995-11.91 1.995-11.91s5.714 12.606 6.257 15.862c.543 3.254-19.752-2.666-20.032-2.217-.536.857-1.128 6.35-1.128 8.248 0 1.57 29.459 8.53 32.945 2.361.991-1.749-5.409-35.226-9.537-39.686-6.779-7.322-24.585-13.56-24.585-13.56s-4.883-2.62-13.471.09c-8.585 2.714-20.607 11.027-22.688 13.198-2.077 2.17-10.395 34.86-11.121 39.094-.682 3.982-.414 12.362 8.678 11.29l24.542-5.62-1.524-7.48-18.395 1.454c-3.755.642-1.955-2.654-1.475-4.486.467-1.796 5.084-18.434 5.084-18.434-.268 4.61 3.21 19.746 5.019 24.988 1.807 5.243-2.19 33.298-2.461 36.37 0 0 14.774 12.134 49.848-2.032" fill="#eb4747"/><path d="M740.14 238.485s-6.055 12.494-11.11 16.155c0 0-9.103-13.64-8.638-16.785 0 0 10.083-4.472 19.748.63M740.359 280.61s-2.806-1.131-3.551-2.149c-.743-1.018-3.23-1.625-5.07-1.078-1.84.549-.822 8.456-.822 8.456l9.71 1.257-.267-6.487M722.78 286.648s.933-5.11.71-6.052c-.226-.941 1.658-1.888 1.92.443.263 2.33.402 3.813.402 3.813l-3.032 1.796" fill="#eea886"/><path d="M726.817 290.195l7.07-.288a1.703 1.703 0 001.634-1.68l.188-15.479a1.699 1.699 0 00-1.756-1.721l-8.464.276a1.703 1.703 0 00-1.642 1.833l1.204 15.49c.069.913.852 1.606 1.766 1.569" fill="#51578c"/><path d="M722.624 287.064s-.132-1.452 2.656-2.78c3.7-1.765 8.637-3.56 9.48-3.096 1.215.667.59 1.59-1.75 2.361-2.337.771-3.109 1.018-3.109 1.018s4.574-.436 5.602.11c1.025.55 1.082 1.812.333 2.02-.75.207-2.519.332-2.519.332s1.94.075 2.136.854c.143.578.215 1.404-1.622 1.745 0 0 1.246 1.383-.623 2.27-1.868.885-5.25 1.693-6.95 1.971-3.533.58-11.51.15-11.51.15l3.276-5.546s1.824.143 3.077-.282c1.695-.579 1.523-1.127 1.523-1.127" fill="#eea886"/><path d="M720.55 287.523l1.525 7.48-15.639 3.581-.604-9.897 14.719-1.164M738.44 279.588s-1.29 2.767-1.128 8.248c0 0 9.699 3.541 17.23 4.364v-9.513l-16.102-3.099" fill="#eb4747"/><path d="M722.075 295.003l-10.963 6.096c.076-1.272.13-2.488.156-3.62l10.807-2.476M750.892 295.813c-8.796-3.494-12.316-6.646-13.284-7.646-.207-.214-.296-.331-.296-.331l12.49 3.643h.002c.31 1.512.72 2.933 1.088 4.334" fill="#b33636"/><path d="M730.613 193.361s12.23 1.767 10.44 19.816c-1.79 18.055-12.582 16.622-13.304 16.606-.722-.015-10.829.376-11.702-21.652 0 0-.407-16.29 14.566-14.77" fill="#eea886"/><path d="M736.047 226.581s-.755 9.391 1.052 12.203c1.809 2.813-1.546 6.633-8.46 5.325-6.914-1.304-6.51-5.224-6.51-5.224s1.935-5.797 1.368-10.434c-.566-4.639 12.55-1.87 12.55-1.87" fill="#eea886"/><path d="M729.215 199.905s5.714 6.007 8.369 9.048c2.652 3.042 2.957 8.916 2.957 8.916s4.474-5.46 2.602-11.82c-1.868-6.358-6.294-18.732-17.491-14.932-11.199 3.802-11.612 20.531-10.299 28.826 0 0 5.027-18.311 13.862-20.038" fill="#464240"/><path d="M724.397 228.965s5.21 2.462 10.28-1.176c0 0-1.408 2.91-5.141 3.323-3.73.415-5.139-2.147-5.139-2.147" fill="#a77860"/><path d="M722.621 232.24s-16.824 14.968-12.458 24.308c3.725 7.97 16.94 3.083 14.76-5.27-2.18-8.351-2.302-19.038-2.302-19.038" fill="#464240"/><path d="M727.203 274.287a1.053 1.053 0 01-2.104 0 1.053 1.053 0 012.104 0" fill="#48484d"/><path d="M272.18 482.203l-12.276-81.643 2.364-.363 12.276 81.642-2.364.364M257.19 482.203l-12.277-81.643 2.366-.363 12.276 81.642-2.366.364M183.355 482.203l-2.364-.364 12.276-81.642 2.362.363-12.274 81.643" fill="#5c5049"/><path d="M263.745 401.393l9.616-101.172s-16.817-2.198-26.98-1.657l-15.274 102.83h32.638" fill="#fab46c"/><path d="M263.745 396.25h-32.638v5.143h32.638v-5.142M209.753 397.27l-5.102-96.41s42.566-4.623 68.71-.639l-63.608 97.05" fill="#fab46c"/><path d="M243.744 269.64s6.573-19.275-5.97-25.25c-12.543-5.975-23.193 2.663-25.203 7.337-2.012 4.673-1.48 13.172.236 19.098 1.716 5.927 1.466 14.951-2.262 17.967-3.726 3.017-8.348 8.028-8.12 18.23.142 6.329 24.903-16.189 24.903-16.189l16.416-21.193" fill="#fccca2"/><path d="M227.008 477.052s-.39 13.623 1.555 14.44c1.944.82 9.306-3.916 12.553-8.601 3.248-4.683-4.068-15.586-5.27-21.599-.502-2.521-6.222-7.05-9.011-5.753-2.79 1.3-4.826 4.625-4.826 4.625s7.099 4.864 4.999 16.888" fill="#d4c3bd"/><path d="M222.01 460.164s2.415 4.648 3.657 8.255c1.242 3.608 1.474 13.596 2.257 14.289.781.693 6.952-2.419 7.775-6.153.822-3.736-1.679-11.2-4.06-15.126-2.382-3.924-4.804-5.89-4.804-5.89s-4.207.818-4.826 4.625" fill="#de9673"/><path d="M235.847 461.292l6.63 9.675-1.256.858-5.124-7.477-.25-3.056" fill="#d4c3bd"/><path d="M211.985 354.319s3.242 5.473 0 9.458c-3.242 3.986-25.037 14.934-24.877 21.256.16 6.326 4.152 16.222 5.587 18.732 1.434 2.511 6.728 12.93 9.477 19.03 2.75 6.096 18.652 35.268 21.761 41.844 3.108 6.576 1.195-26.302 1.195-26.302l-15.901-46.629 37.154-36.195s-4.498-10.009-34.396-1.194" fill="#de9673"/><path d="M226.119 292.57s-10.308 2.285-14.399 4.678c-4.093 2.39-13.179 13.39-13.179 18.119 0 4.729 39.738 9.149 39.738 9.149l7.533 27.5s20.085-4.904 22.477-8.97c2.39-4.065-7.909-32.997-9.345-39.095-1.433-6.096-8.948-10.208-17.316-11.382-8.37-1.17-15.51 0-15.51 0" fill="#2f4563"/><path d="M250.485 355.223s-.717 4.701 1.195 6.694c1.915 1.995 10.725 13.614 6.059 25.03-4.286 10.482-12.595 10.282-12.595 10.282h-12.86s3.733 18.87 2.53 31.302c-1.207 12.436-6.88 40.83-6.998 42.264-.12 1.436-5.437 5.921-6.992 3.649 0 0-.144-17.097-.983-23.553-.836-6.458-4.397-32.282-5.474-36.107-1.075-3.827-7.412-15.424-7.412-16.62 0-1.195-6.19-19.913 7.322-24.695 13.508-4.784 18.284-18.146 36.208-18.246" fill="#eea886"/><path d="M214.421 487.63s-8.869 10.345-7.872 12.206c.998 1.86 9.699 2.807 15.171 1.207 5.47-1.6 6.637-14.679 9.487-20.11 1.193-2.272-.407-9.393-3.391-10.138-2.985-.744-6.66.562-6.66.562s2.459 8.244-6.735 16.274" fill="#e6d3cc"/><path d="M221.156 471.357s-1.045 5.132-2.35 8.719c-1.302 3.585-7.4 11.496-7.229 12.527.172 1.032 6.926 2.49 9.915.105 2.988-2.387 5.737-9.763 6.355-14.313.614-4.548-.031-7.6-.031-7.6s-3.785-2.008-6.66.562" fill="#eea886"/><path d="M231.207 480.933l-.93 11.692-1.517-.121.719-9.035 1.728-2.536" fill="#e6d3cc"/><path d="M257.739 386.947c-4.046 10.621-12.595 10.282-12.595 10.282h-12.859s-5.365-8.5-18.501-9.961c-2.91-.323-6.205-.301-9.905.236-.046.007-.09.012-.135.02-17.453 2.585-14.081 8.992-14.03 9.159-1.449-3.543-2.973-9.175-2.606-12.208 1.673-13.815 21.635-16.712 24.877-20.698 3.242-3.985 0-9.458 0-9.458 29.899-8.815 34.396 1.194 34.396 1.194 1.31-.181 4.67-2.116 6.098-2.125 0 0 1.496 3.268 2.549 6.219.93 2.601 7.1 15.814 2.71 27.34" fill="#2f4563"/><path d="M245.333 310.885l4.424 41.131h-58.225l-4.424-41.13h58.225" fill="#ded1c5"/><path d="M254.39 348.315h-9.723v3.701h9.724v-3.701" fill="#ded1c5"/><path d="M311.783 357.613H151.404v-5.597h160.379v5.597" fill="#bc8551"/><path d="M232.563 247.677s13.045 3.859 11.181 21.963c-1.864 18.105-10.384 17.172-11.181 17.305-.799.134-10.915.8-14.111-21.164-3.193-21.964 14.11-18.104 14.11-18.104" fill="#eea886"/><path d="M238.779 283.616s-.69 5.993.464 9.721c1.153 3.728-15.195 3.83-15.186.764.01-3.481 1.672-6.39.107-12.356-1.565-5.969 14.615 1.871 14.615 1.871" fill="#eea886"/><path d="M229.195 255.75s7.089 11.277 14.549 13.89c0 0 4.073-18.919-12.75-22.885-16.827-3.962-14.191 19.112-12.935 25.265 0 0 3.502-9.052 11.136-16.27" fill="#fccca2"/><path d="M226.099 284.38s5.161 5.377 11.762.56c0 0-.545 3.437-5.293 3.883-4.747.442-6.47-4.443-6.47-4.443" fill="#a77860"/><path d="M219.688 254.05s3.732-7.225 10.032-7.547c6.3-.323 10.047 5.142 10.047 5.142s-2.46-6.153-10.04-6.153c-7.579 0-10.039 8.559-10.039 8.559" fill="#23344a"/><path d="M240.912 292.473s-.232 12.532-10.168 12.904c-9.939.374-7.87-12.017-7.87-12.017s7.27-2.945 18.038-.887" fill="#eea886"/><path d="M307.664 486.21h4.119V357.614h-4.119v128.598M151.404 486.21h4.119V357.614h-4.119v128.598" fill="#807066"/><path d="M637.765 243.964s12.76 3.745 11.98 21.09c-.785 17.345-11.98-21.09-11.98-21.09" fill="#eea886"/><path d="M636.59 243.964s.986 1.339-.246 9.968c-1.23 8.63 1.103 12.24 1.38 15.83.279 3.593 4.49 26.789 4.605 27.814.114 1.025.68 13.372 2.323 16.648 1.644 3.276 13.719 21.844 13.881 22.77.162.927 5.864-3.234 5.864-3.234s-10.844-22.56-11.545-24.784c-.873-2.761-3.544-9.604-3.707-13.183-.4-8.752.392-29.074.086-33.501-.578-8.288-7.107-17.01-12.64-18.328" fill="#eea886"/><path d="M652.853 318.024s1.899 4.173 3.023 4.433c1.121.259 2.46 1.65 3.423 2.076.96.428 3.988.66 4.802 1.45.331.324 1.607 3.108 2.352 3.692.747.584 2.4 1.585 1.888 2.213-.51.625-2.228.136-2.228.136s.647.572.371 1.265c-.539 1.35-1.444 1.41-1.444 1.41s.29 1.012-.076 1.514c-.805 1.107-1.684 1.142-1.684 1.142s-.076.781-.777 1.393c-.9.78-2.011.336-2.011.336s-.899 1.241-1.728 1c-.832-.24-1.313-.861-1.905-1.223-.595-.364-4.739-5.129-6.27-9.588-1.53-4.461-4.185-8.082-4.185-8.082l6.45-3.167" fill="#eea987"/><path d="M641.187 350.161L618.54 322.24l46.594-37.79 22.645 27.92-46.593 37.791" fill="#214361"/><path d="M665.881 331.47s-3.612-4.013-5.41-3.937c-1.802.076-.574 1.598-.574 1.598s-1.189-1.524-2.468-.716c-1.281.806.247 2.509.247 2.509s-1.203-.913-2.15.353c-.946 1.27.633 2.398.633 2.398s-2.384-.352-1.872 1.593c.86 3.285 4.408 4.89 4.408 4.89s.992.275 1.82-1.01c0 0 2.226.855 2.838-1.728 0 0 2.606-.6 1.778-2.68 0 0 2.744-.96.75-3.27" fill="#db9c7c"/><path d="M626.101 193.29s-18.453-1.535-17.948 17.877c.506 19.409 3.582 22.33-.012 36.046-3.589 13.716 17.992-7.79 17.992-7.79l-.032-46.132" fill="#fccca2"/><path d="M605.996 313.237s-6.795 8.659-9.192 14.391c-2.4 5.728-6.396 18.285-5.863 28.01.532 9.726 3.728 27.98 2.796 32.11-.932 4.13-1.862 12.659-2.862 15.588-1.002 2.93-4.996 11.457-5.399 20.25-.397 8.794 5.599 47.433 5.33 51.029-.266 3.598 6.797 1.466 6.797 1.466s2.396-34.906 3.729-40.902c1.332-5.996 2.93-26.379 4.132-27.846 1.199-1.466 4.477-16.653 3.968-19.052-.507-2.398 13.084-38.372 13.883-45.566.8-7.194 20.838-29.478 20.838-29.478s-17.506-6.696-38.157 0" fill="#eea987"/><path d="M638.424 313.237s.345 3.63.747 4.962c.4 1.332 9.593 35.309 10.525 48.366.935 13.056 3.33 24.13 3.73 26.919.4 2.79-.4 12.117-1.2 14.516-.797 2.397 4 59.021 4.4 60.355.4 1.33-3.2 1.73-5.73 1.33-2.533-.398-15.321-41.568-14.523-48.494.8-6.931 1.598-21.702-.666-27.707-2.266-6.003-22.65-49.437-22.783-52.101-.132-2.666-8.821-48.563 25.5-28.146M597.475 471.833s.657 4.599 1.374 5.855c.719 1.255 2.687 7.645 3.586 8.84.896 1.196 2.868 10.155 0 11.23-2.867 1.075-9.62 2.867-11.888-.717a14.743 14.743 0 01-2.211-9.916c.359-2.748 3.083-15.36 3.047-16.606-.039-1.248 6.092 1.314 6.092 1.314" fill="#eea987"/><path d="M601.29 484.045s.307 6.963-4.949 6.963c-5.257 0-7.588-6.336-7.588-6.336s-1.789 3.11 0 9.743c1.794 6.628 9.262 5.254 10.934 5.014 1.672-.237 9.6-2.336 1.604-15.384M656.057 465.58s3.716 6.647 5.922 7.993c2.75 1.679 8.086 7.063 9.95 7.311 1.867.25 8.567 1.436 7.272 5.22-1.061 3.099-17.044 2.656-18.846 1.103-1.803-1.555-7.194-7.131-9.37-7.008-2.176.125-1.365 8.045-1.365 8.045h-2.363s-.826-7.707-.925-9.03c-.295-3.92 2.503-6.807 2.627-9.042.124-2.24.25-3.908.25-3.908l6.848-.684" fill="#fff"/><path d="M671.397 480.701s-5.27 1.822-9.324-.508c-4.054-2.332-11.837-5.87-14.589-5.896 0 0 1.497-4.59 1.53-5.104.033-.513.195-2.929.195-2.929l6.806-1.09s4.412 6.477 6.356 8.003c1.946 1.526 6.93 5.331 9.026 7.524" fill="#eea987"/><path d="M644.268 312.639s1.896 7.892 2.596 10.192c.7 2.297 5.19 37.953 6.295 60.254 0 0-26.879 10.191-63.851 8.494 0 0-.899-40.97 2.497-52.56 3.398-11.594 9.55-22.438 14.191-25.782 4.13-2.977 38.272-.598 38.272-.598" fill="#5779d4"/><path d="M648.887 265.964c-.302 4.697-2.223 7.703-2.623 9.4-.4 1.7 0 5.597-.499 9.496-.501 3.895-1.997 22.481-1.497 27.779.497 5.294-36.352 2.902-39.148 1.304 0 0 6.205-11.098 6.372-15.695.056-1.579 1-6.496-1.6-10.092-1.37-1.899-3.916-7.943-6.455-12.361 0 0 .472-.918 0 0-.984-1.714-2.014-3.423-2.734-4.695-.939-1.66-1.46-3.628-1.46-3.628s-1.64-20.385 2.854-22.683c4.499-2.3 6.895-2.698 11.294-2.898 4.396-.2 7.296-1.099 7.296-1.099l10.289 1.099s3.632 1.7 6.23 1.902c2.598.199 5.773 5.843 7.345 9.931 1.296 3.37 4.636 7.543 4.336 12.24" fill="#e8e8e8"/><path d="M607.685 242.661s-8.145.676-11.21 8.163c-3.06 7.485-2.804 15.088-3.467 17.852-.664 2.765-1.636 18.783-2.333 21.15-.699 2.367-3.095 13.343-3.632 22.215-.535 8.875.786 27.587.786 27.587l4.514-2.193s4.018-27.747 5.76-33.615c1.489-5.015 1.489-13.548 2.326-16.628.835-3.083 5.951-21.621 6.774-23.5 1.266-2.88 7.482-21.124.482-21.03M624.297 195.256c4.572-.748 15.039.397 18.006 12.407 0 0 .005 3.329-.498 6.001-.501 2.672 2.682 10.021 2.122 10.465-.56.444-3.002 1.21-3.002 1.21s-1.73 8.622-4.66 8.885c-2.924.261-14.238-.755-20.625-10.505-6.39-9.751-9.812-25.44 8.657-28.463" fill="#eea886"/><path d="M631.888 230.881s-.224 1.207-.435 2.983c-.106.91-.21 1.964-.277 3.081-.181 3.096-.09 6.678.967 8.95 0 0-5.74 3.49-11.88-5.048 0 0 .606-10.596-2.922-16.23-3.528-5.632 14.547 6.264 14.547 6.264" fill="#eea886"/><path d="M642.303 207.663s-6.887 5.944-14.178 7.818c-7.29 1.878-11.152 10.066-11.152 10.066s-12.9-12.867-5.114-25.354c7.784-12.49 30.429-6.92 30.444 7.47" fill="#fccca2"/><path d="M631.453 233.864c-.106.91-.21 1.964-.277 3.081-6.43-3.12-9.975-7.396-9.975-7.396 3.779 2.706 10.252 4.315 10.252 4.315" fill="#a77860"/><path d="M626.785 215.91s-7.46 20.055-6.565 24.882c0 0-3.95-.68-10.977 1.468 0 0 3.397-35.779 17.542-26.35" fill="#fccca2"/><path d="M617.73 241.439s2.455 15.04 11.549 13.342c9.093-1.7 2.196-12.72 2.196-12.72s-4.039-3.384-13.746-.622M592.452 336.675s.715 2.38 1.839 4.777c.546 1.17 1.366 9.05 1.397 10.075.025.858-.58.394-.913-.147-.191-.312-.914-3.003-1.527-4.416-.517-1.187-.917-1.615-1.103-1.207-.185.414-.193 5.516.436 7.65.627 2.132.516 7.166-.678 6.53-1.196-.636-4.544-9.472-4.578-12.89-.029-3.422.494-7.552.494-7.552l4.633-2.82" fill="#eea886"/></svg>